<svg width="324" height="36" viewBox="0 0 324 36" fill="none" xmlns="http://www.w3.org/2000/svg">
<path d="M8.03998 8.86438C8.03998 8.86438 8.75998 -0.375621 21.12 0.704379C21.12 0.704379 26.4 1.30438 28.8 4.78438C28.8 4.78438 17.64 0.464379 14.4 6.58438C14.4 6.58438 11.52 11.8644 16.8 13.7844C16.8 13.7844 26.76 16.5444 27.96 22.0644C27.96 22.0644 24.96 18.3444 17.64 17.9844C17.64 17.9844 7.19998 17.6244 8.03998 8.86438Z" fill="#005DE9"/>
<path d="M7.20001 30.9444C7.20001 30.9444 10.2 35.3844 18 35.3844C18 35.3844 26.64 35.0244 28.08 27.9444C28.08 27.9444 29.76 21.9444 21.48 20.1444C20.1335 19.8856 18.7699 19.7252 17.4 19.6644C17.4 19.6644 14.04 19.5444 12.48 18.3444C12.48 18.3444 13.2 19.9044 18.72 21.2244C18.72 21.2244 24.24 22.1844 22.56 27.9444C22.56 27.9444 19.2 37.1844 7.20001 30.9444Z" fill="#005DE9"/>
<path d="M17.76 9.70442C18.6879 9.70442 19.44 8.95226 19.44 8.02442C19.44 7.09658 18.6879 6.34442 17.76 6.34442C16.8322 6.34442 16.08 7.09658 16.08 8.02442C16.08 8.95226 16.8322 9.70442 17.76 9.70442Z" fill="#005DE9"/>
<path d="M19.44 28.9044C20.3678 28.9044 21.12 28.1523 21.12 27.2244C21.12 26.2966 20.3678 25.5444 19.44 25.5444C18.5122 25.5444 17.76 26.2966 17.76 27.2244C17.76 28.1523 18.5122 28.9044 19.44 28.9044Z" fill="#005DE9"/>
<path d="M51.0977 15.3789C50.8164 15.332 50.6641 15.1797 50.6406 14.9219V8.83984C50.6875 8.55859 50.8398 8.40625 51.0977 8.38281H60.8008V5.67578L52.5039 5.53516C49.7617 5.48828 48.1211 6.54297 47.582 8.69922C47.4883 9.16797 47.4414 9.64844 47.4414 10.1406V13.7969C47.4414 16.4219 48.7422 17.875 51.3438 18.1562C51.6953 18.1797 52.0469 18.1914 52.3984 18.1914H57.7773C58.0586 18.2383 58.2109 18.3906 58.2344 18.6484V24.8359C58.1875 25.1172 58.0352 25.2695 57.7773 25.293H47.793V28L56.4766 28.1406C59.7578 28.1641 61.4102 26.6523 61.4336 23.6055V19.8086C61.3867 16.8789 59.6992 15.4023 56.3711 15.3789H51.0977Z" fill="#005DE9"/>
<path d="M76.2906 28V8.38281H81.8453V5.67578H67.6422V8.38281H73.1617V28H76.2906Z" fill="#005DE9"/>
<path d="M100.183 28.2461C102.808 28.2461 104.331 27.3203 104.753 25.4688C104.847 25.0469 104.894 24.5781 104.894 24.0625V5.67578H101.659V25.082C101.612 25.293 101.495 25.4102 101.308 25.4336H93.0109C92.8 25.3867 92.6828 25.2695 92.6594 25.082V5.67578H89.4602V24.0625C89.4602 26.3125 90.4211 27.6484 92.343 28.0703C92.882 28.1875 93.4797 28.2461 94.1359 28.2461H100.183Z" fill="#005DE9"/>
<path d="M125.938 8.24219C126.22 8.28906 126.372 8.44141 126.395 8.69922V24.9766C126.348 25.2578 126.196 25.4102 125.938 25.4336H118.063V8.24219H125.938ZM114.934 28.0352L124.532 28.1758C127.532 28.1992 129.196 27.0273 129.524 24.6602C129.571 24.332 129.595 23.9805 129.595 23.6055V10.0703C129.595 7.53906 128.528 6.0625 126.395 5.64062C125.856 5.54688 125.27 5.5 124.637 5.5L114.934 5.67578V28.0352Z" fill="#005DE9"/>
<path d="M146.702 28V19.9492C147.662 19.832 148.377 19.3867 148.846 18.6133C149.057 18.2383 149.327 17.6406 149.655 16.8203L154.049 5.67578H150.885L146.526 16.9609C146.432 17.1719 146.291 17.2891 146.104 17.3125H144.381C144.194 17.2656 144.053 17.1484 143.959 16.9609L139.565 5.64062H136.26L140.62 16.8203C141.182 18.2266 141.756 19.1172 142.342 19.4922C142.694 19.7031 143.104 19.8438 143.573 19.9141V28H146.702Z" fill="#005DE9"/>
<path d="M189.459 23.5352V20.1602C189.435 18.3086 188.709 17.1016 187.279 16.5391C188.38 15.8828 188.931 14.793 188.931 13.2695V10.0703C188.931 7.02344 187.279 5.51172 183.974 5.53516L174.798 5.67578V28L184.396 28.1406C187.255 28.1641 188.908 27.0391 189.353 24.7656C189.423 24.3906 189.459 23.9805 189.459 23.5352ZM185.802 17.9453C186.084 17.9922 186.236 18.1328 186.259 18.3672V24.9414C186.212 25.2227 186.06 25.375 185.802 25.3984H177.927V17.9453H185.802ZM185.275 8.20703C185.556 8.25391 185.709 8.40625 185.732 8.66406V14.8867C185.685 15.168 185.533 15.3203 185.275 15.3438H177.927V8.20703H185.275Z" fill="#005DE9"/>
<path d="M209.835 28.2461C212.46 28.2461 213.984 27.3203 214.405 25.4688C214.499 25.0469 214.546 24.5781 214.546 24.0625V5.67578H211.312V25.082C211.265 25.293 211.148 25.4102 210.96 25.4336H202.663C202.452 25.3867 202.335 25.2695 202.312 25.082V5.67578H199.113V24.0625C199.113 26.3125 200.073 27.6484 201.995 28.0703C202.534 28.1875 203.132 28.2461 203.788 28.2461H209.835Z" fill="#005DE9"/>
<path d="M235.591 8.24219C235.872 8.28906 236.024 8.44141 236.048 8.69922V24.9766C236.001 25.2578 235.848 25.4102 235.591 25.4336H227.716V8.24219H235.591ZM224.587 28.0352L234.184 28.1758C237.184 28.1992 238.848 27.0273 239.177 24.6602C239.223 24.332 239.247 23.9805 239.247 23.6055V10.0703C239.247 7.53906 238.18 6.0625 236.048 5.64062C235.509 5.54688 234.923 5.5 234.29 5.5L224.587 5.67578V28.0352Z" fill="#005DE9"/>
<path d="M260.291 8.24219C260.573 8.28906 260.725 8.44141 260.748 8.69922V24.9766C260.702 25.2578 260.549 25.4102 260.291 25.4336H252.416V8.24219H260.291ZM249.288 28.0352L258.885 28.1758C261.885 28.1992 263.549 27.0273 263.877 24.6602C263.924 24.332 263.948 23.9805 263.948 23.6055V10.0703C263.948 7.53906 262.881 6.0625 260.748 5.64062C260.209 5.54688 259.623 5.5 258.991 5.5L249.288 5.67578V28.0352Z" fill="#005DE9"/>
<path d="M277.574 28V5.67578H274.445V28H277.574Z" fill="#005DE9"/>
<path d="M301.009 28V25.293H291.517V17.9805H300.236V15.3086H291.517V8.38281H300.834V5.67578H288.388V28H301.009Z" fill="#005DE9"/>
<path d="M312.667 15.3789C312.386 15.332 312.234 15.1797 312.21 14.9219V8.83984C312.257 8.55859 312.409 8.40625 312.667 8.38281H322.37V5.67578L314.073 5.53516C311.331 5.48828 309.691 6.54297 309.152 8.69922C309.058 9.16797 309.011 9.64844 309.011 10.1406V13.7969C309.011 16.4219 310.312 17.875 312.913 18.1562C313.265 18.1797 313.616 18.1914 313.968 18.1914H319.347C319.628 18.2383 319.78 18.3906 319.804 18.6484V24.8359C319.757 25.1172 319.605 25.2695 319.347 25.293H309.362V28L318.046 28.1406C321.327 28.1641 322.98 26.6523 323.003 23.6055V19.8086C322.956 16.8789 321.269 15.4023 317.941 15.3789H312.667Z" fill="#005DE9"/>
</svg>
